<?xml version="1.0" standalone="no"?>
<!DOCTYPE svg PUBLIC "-//W3C//DTD SVG 20010904//EN"
 "http://www.w3.org/TR/2001/REC-SVG-20010904/DTD/svg10.dtd">
<svg version="1.0" xmlns="http://www.w3.org/2000/svg"
 width="1024.000000pt" height="1024.000000pt" viewBox="0 0 1024.000000 1024.000000"
 preserveAspectRatio="xMidYMid meet">
<metadata>
Created by potrace 1.14, written by Peter Selinger 2001-2017
</metadata>
<g transform="translate(0.000000,1024.000000) scale(0.100000,-0.100000)"
fill="#000000" stroke="none">
<path d="M4958 9915 c-2 -2 -32 -6 -67 -9 -35 -3 -73 -8 -85 -11 -11 -3 -32
-7 -46 -9 -14 -3 -36 -8 -50 -11 -14 -3 -37 -7 -51 -10 -116 -21 -360 -121
-534 -219 -22 -12 -85 -46 -140 -75 -55 -30 -113 -61 -130 -71 -16 -9 -70 -39
-120 -65 -49 -27 -108 -58 -130 -70 -64 -36 -273 -148 -360 -195 -44 -23 -102
-55 -130 -70 -27 -15 -77 -42 -110 -60 -33 -18 -114 -62 -180 -98 -66 -35
-149 -81 -185 -100 -36 -19 -92 -49 -125 -67 -179 -97 -199 -108 -415 -225
-63 -34 -153 -83 -200 -108 -47 -25 -120 -65 -164 -89 -43 -23 -80 -43 -81
-43 -6 0 -141 -84 -189 -118 -292 -202 -527 -490 -673 -827 -27 -60 -91 -254
-98 -295 -3 -17 -12 -62 -20 -101 -8 -39 -19 -101 -23 -138 -9 -87 -9 -3325 0
-3416 53 -496 309 -965 701 -1283 133 -108 217 -158 752 -446 39 -21 122 -66
185 -99 63 -33 129 -69 145 -78 17 -10 50 -28 75 -40 25 -13 74 -39 110 -59
36 -21 101 -56 145 -80 213 -114 226 -121 368 -199 28 -15 88 -47 132 -71 44
-24 127 -69 185 -100 58 -32 141 -77 185 -100 79 -42 274 -147 370 -200 211
-115 300 -160 380 -193 105 -43 250 -89 318 -101 15 -2 35 -7 45 -10 22 -6 81
-15 167 -25 76 -9 401 -6 450 3 17 4 68 13 115 22 255 46 371 96 904 384 l69
38 76 -62 c221 -178 510 -317 773 -372 259 -54 480 -63 706 -30 130 20 123 18
244 50 634 167 1143 667 1301 1276 43 167 51 234 52 430 0 261 -32 423 -132
662 -37 89 -42 110 -33 128 32 60 106 293 123 390 7 37 17 91 24 125 10 50 12
3363 2 3445 -19 152 -77 394 -114 475 -8 16 -24 55 -35 85 -54 139 -199 369
-315 499 -166 186 -334 318 -565 444 -30 16 -102 56 -160 87 -101 55 -164 89
-315 170 -38 21 -144 78 -235 127 -91 50 -194 106 -230 125 -36 19 -101 55
-145 79 -152 82 -180 98 -250 134 -60 32 -309 167 -470 255 -27 15 -90 49
-140 75 -49 26 -103 56 -120 65 -16 10 -66 37 -110 60 -44 24 -102 55 -130 70
-240 132 -367 194 -485 237 -68 25 -265 77 -338 88 -23 4 -54 9 -70 12 -30 5
-399 13 -404 8z m412 -3180 c52 -7 106 -16 120 -19 14 -3 36 -8 50 -11 163
-31 303 -90 748 -313 l434 -217 -5 -605 c-2 -333 -6 -614 -9 -625 -3 -11 -9
-40 -13 -65 -14 -84 -16 -95 -36 -173 -125 -492 -442 -913 -888 -1181 -52 -31
-95 -56 -97 -56 -2 0 -68 -35 -146 -78 -79 -43 -188 -103 -243 -132 -55 -29
-108 -58 -117 -64 -20 -12 -43 -2 -288 136 -62 34 -134 74 -280 153 -344 188
-568 385 -760 671 -48 70 -148 257 -177 329 -42 105 -95 288 -107 369 -4 21
-9 48 -11 60 -15 61 -17 136 -22 647 -5 542 -4 557 15 595 19 37 39 49 434
246 420 211 550 265 719 303 193 42 490 56 679 30z"/>
</g>
</svg>
